HIERARCHY
ROOT hip
{
OFFSET -0.18 96.28 0.22
CHANNELS 6 Xposition Yposition Zposition Zrotation Xrotation Yrotation
JOINT abdomen
{
OFFSET 0 7.23 0
CHANNELS 6 Xposition Yposition Zposition Zrotation Xrotation Yrotation
JOINT chest
{
OFFSET 0 16.54 0
CHANNELS 6 Xposition Yposition Zposition Zrotation Xrotation Yrotation
JOINT neck
{
OFFSET 0 34.21 0
CHANNELS 6 Xposition Yposition Zposition Zrotation Xrotation Yrotation
JOINT head
{
OFFSET 0 6.29 0
CHANNELS 6 Xposition Yposition Zposition Zrotation Xrotation Yrotation
End Site
{
OFFSET 0 21.21 0
}
}
}
JOINT lCollar
{
OFFSET 4.06 26.61 -1.12
CHANNELS 6 Xposition Yposition Zposition Zrotation Xrotation Yrotation
JOINT lShldr
{
OFFSET 14.17 0 0
CHANNELS 6 Xposition Yposition Zposition Zrotation Xrotation Yrotation
JOINT lForeArm
{
OFFSET 26.12 0 0
CHANNELS 6 Xposition Yposition Zposition Zrotation Xrotation Yrotation
JOINT lHand
{
OFFSET 27.71 0 0
CHANNELS 6 Xposition Yposition Zposition Zrotation Xrotation Yrotation
JOINT lThumb1
{
OFFSET 2.29 -0.46 1.83
CHANNELS 6 Xposition Yposition Zposition Zrotation Xrotation Yrotation
JOINT lThumb2
{
OFFSET 5.29 0 0
CHANNELS 6 Xposition Yposition Zposition Zrotation Xrotation Yrotation
JOINT lThumb3
{
OFFSET 3.01 0 0
CHANNELS 6 Xposition Yposition Zposition Zrotation Xrotation Yrotation
End Site
{
OFFSET 2.62 0 0
}
}
}
}
JOINT lIndex1
{
OFFSET 9.37 0.29 2.59
CHANNELS 6 Xposition Yposition Zposition Zrotation Xrotation Yrotation
JOINT lIndex2
{
OFFSET 4.34 0 0
CHANNELS 6 Xposition Yposition Zposition Zrotation Xrotation Yrotation
JOINT lIndex3
{
OFFSET 2.16 0 0
CHANNELS 6 Xposition Yposition Zposition Zrotation Xrotation Yrotation
End Site
{
OFFSET 2.20 0 0
}
}
}
}
JOINT lMid1
{
OFFSET 9.47 0.83 0.29
CHANNELS 6 Xposition Yposition Zposition Zrotation Xrotation Yrotation
JOINT lMid2
{
OFFSET 4.77 0 0
CHANNELS 6 Xposition Yposition Zposition Zrotation Xrotation Yrotation
JOINT lMid3
{
OFFSET 2.87 0 0
CHANNELS 6 Xposition Yposition Zposition Zrotation Xrotation Yrotation
End Site
{
OFFSET 2.09 0 0
}
}
}
}
JOINT lRing1
{
OFFSET 8.65 1.01 -1.70
CHANNELS 6 Xposition Yposition Zposition Zrotation Xrotation Yrotation
JOINT lRing2
{
OFFSET 4.54 0 0
CHANNELS 6 Xposition Yposition Zposition Zrotation Xrotation Yrotation
JOINT lRing3
{
OFFSET 2.50 0 0
CHANNELS 6 Xposition Yposition Zposition Zrotation Xrotation Yrotation
End Site
{
OFFSET 2.20 0 0
}
}
}
}
JOINT lPinky1
{
OFFSET 7.69 0.66 -3.90
CHANNELS 6 Xposition Yposition Zposition Zrotation Xrotation Yrotation
JOINT lPinky2
{
OFFSET 3.21 0 0
CHANNELS 6 Xposition Yposition Zposition Zrotation Xrotation Yrotation
JOINT lPinky3
{
OFFSET 1.92 0 0
CHANNELS 6 Xposition Yposition Zposition Zrotation Xrotation Yrotation
End Site
{
OFFSET 1.78 0 0
}
}
}
}
}
}
}
}
JOINT rCollar
{
OFFSET -4.06 26.61 -1.12
CHANNELS 6 Xposition Yposition Zposition Zrotation Xrotation Yrotation
JOINT rShldr
{
OFFSET -14.17 0 0
CHANNELS 6 Xposition Yposition Zposition Zrotation Xrotation Yrotation
JOINT rForeArm
{
OFFSET -26.12 0 0
CHANNELS 6 Xposition Yposition Zposition Zrotation Xrotation Yrotation
JOINT rHand
{
OFFSET -27.71 0 0
CHANNELS 6 Xposition Yposition Zposition Zrotation Xrotation Yrotation
JOINT rThumb1
{
OFFSET -2.29 -0.46 1.83
CHANNELS 6 Xposition Yposition Zposition Zrotation Xrotation Yrotation
JOINT rThumb2
{
OFFSET -5.29 0 0
CHANNELS 6 Xposition Yposition Zposition Zrotation Xrotation Yrotation
JOINT rThumb3
{
OFFSET -3.01 0 0
CHANNELS 6 Xposition Yposition Zposition Zrotation Xrotation Yrotation
End Site
{
OFFSET -2.62 0 0
}
}
}
}
JOINT rIndex1
{
OFFSET -9.37 0.29 2.59
CHANNELS 6 Xposition Yposition Zposition Zrotation Xrotation Yrotation
JOINT rIndex2
{
OFFSET -4.34 0 0
CHANNELS 6 Xposition Yposition Zposition Zrotation Xrotation Yrotation
JOINT rIndex3
{
OFFSET -2.16 0 0
CHANNELS 6 Xposition Yposition Zposition Zrotation Xrotation Yrotation
End Site
{
OFFSET -2.20 0 0
}
}
}
}
JOINT rMid1
{
OFFSET -9.47 0.83 0.29
CHANNELS 6 Xposition Yposition Zposition Zrotation Xrotation Yrotation
JOINT rMid2
{
OFFSET -4.77 0 0
CHANNELS 6 Xposition Yposition Zposition Zrotation Xrotation Yrotation
JOINT rMid3
{
OFFSET -2.87 0 0
CHANNELS 6 Xposition Yposition Zposition Zrotation Xrotation Yrotation
End Site
{
OFFSET -2.09 0 0
}
}
}
}
JOINT rRing1
{
OFFSET -8.65 1.01 -1.70
CHANNELS 6 Xposition Yposition Zposition Zrotation Xrotation Yrotation
JOINT rRing2
{
OFFSET -4.54 0 0
CHANNELS 6 Xposition Yposition Zposition Zrotation Xrotation Yrotation
JOINT rRing3
{
OFFSET -2.50 0 0
CHANNELS 6 Xposition Yposition Zposition Zrotation Xrotation Yrotation
End Site
{
OFFSET -2.20 0 0
}
}
}
}
JOINT rPinky1
{
OFFSET -7.69 0.66 -3.90
CHANNELS 6 Xposition Yposition Zposition Zrotation Xrotation Yrotation
JOINT rPinky2
{
OFFSET -3.21 0 0
CHANNELS 6 Xposition Yposition Zposition Zrotation Xrotation Yrotation
JOINT rPinky3
{
OFFSET -1.92 0 0
CHANNELS 6 Xposition Yposition Zposition Zrotation Xrotation Yrotation
End Site
{
OFFSET -1.78 0 0
}
}
}
}
}
}
}
}
}
}
JOINT lThigh
{
OFFSET 8.73 -0 0
CHANNELS 6 Xposition Yposition Zposition Zrotation Xrotation Yrotation
JOINT lShin
{
OFFSET 0 -46.66 0
CHANNELS 6 Xposition Yposition Zposition Zrotation Xrotation Yrotation
JOINT lFoot
{
OFFSET 0 -40.14 0
CHANNELS 6 Xposition Yposition Zposition Zrotation Xrotation Yrotation
JOINT lToes
{
OFFSET 0 -8.88 14.22
CHANNELS 6 Xposition Yposition Zposition Zrotation Xrotation Yrotation
End Site
{
OFFSET 0 0 6.29
}
}
}
}
}
JOINT rThigh
{
OFFSET -8.73 0 -0
CHANNELS 6 Xposition Yposition Zposition Zrotation Xrotation Yrotation
JOINT rShin
{
OFFSET 0 -46.66 0
CHANNELS 6 Xposition Yposition Zposition Zrotation Xrotation Yrotation
JOINT rFoot
{
OFFSET 0 -40.14 0
CHANNELS 6 Xposition Yposition Zposition Zrotation Xrotation Yrotation
JOINT rToes
{
OFFSET 0 -8.88 14.22
CHANNELS 6 Xposition Yposition Zposition Zrotation Xrotation Yrotation
End Site
{
OFFSET 0 0 6.29
}
}
}
}
}
}
MOTION
Frames: 5
Frame Time: 0.03
-0.18 96.28 0.22 -3.73 -3.50 -5.44 0 7.23 0 2.22 -0.65 0.65 0 16.54 0 3.73 0.57 1.11 0 34.21 0 0.56 36.81 -0.21 0 6.29 0 -0.18 -29.41 1.27 4.06 26.61 -1.12 -8.87 -1.57 -11.80 14.17 0 0 -79.77 26.02 7.03 26.12 0 0 -0.02 0 -1.45 27.71 0 0 -14.04 -36.00 -7.46 2.29 -0.46 1.83 56.94 65.02 -79.55 5.29 0 0 -27.67 7.83 22.26 3.01 0 0 17.27 -4.93 15.36 9.37 0.29 2.59 -2.63 -1.04 -2.11 4.34 0 0 -17.10 -0.25 3.50 2.16 0 0 -10.08 -0.17 1.59 9.47 0.83 0.29 -10.23 -4.66 2.05 4.77 0 0 -16.92 -0.55 4.33 2.87 0 0 -13.95 -0.33 4.98 8.65 1.01 -1.70 -15.85 1.66 3.40 4.54 0 0 -20.80 -0.51 2.80 2.50 0 0 -11.02 -0.09 2.43 7.69 0.66 -3.90 -20.52 -10.13 5.91 3.21 0 0 -16.49 -0.82 5.66 1.92 0 0 -11.25 -0.32 5.42 -4.06 26.61 -1.12 10.82 -1.16 9.33 -14.17 0 0 72.87 37.36 -7.64 -26.12 0 0 0.10 0 6.69 -27.71 0 0 12.86 -23.63 2.36 -2.29 -0.46 1.83 -57.04 62.87 80.50 -5.29 0 0 31.64 5.65 -22.81 -3.01 0 0 -17.87 -3.75 -19.14 -9.37 0.29 2.59 1.90 -1.02 2.47 -4.34 0 0 17.17 -0.19 -3.15 -2.16 0 0 10.11 -0.15 -1.43 -9.47 0.83 0.29 9.61 -4.58 -1.54 -4.77 0 0 17.01 -0.50 -3.98 -2.87 0 0 14.05 -0.30 -4.61 -8.65 1.01 -1.70 15.20 1.80 -2.79 -4.54 0 0 20.86 -0.43 -2.38 -2.50 0 0 11.07 -0.07 -2.07 -7.69 0.66 -3.90 20.06 -9.95 -5.19 -3.21 0 0 16.61 -0.77 -5.32 -1.92 0 0 11.36 -0.30 -5.09 8.73 -0 0 10.94 -8.28 24.46 0 -46.66 0 5.82 17.85 0.96 0 -40.14 0 -6.81 -3.26 7.99 0 -8.88 14.22 0 0 0 -8.73 0 -0 2.74 0.32 -18.44 0 -46.66 0 -3.01 12.15 -9.46 0 -40.14 0 3.25 -7.97 -9.19 0 -8.88 14.22 0 0 0 
-0.18 96.25 0.27 -3.75 -3.62 -5.49 0 7.23 0 2.23 -0.63 0.64 0 16.54 0 3.77 0.61 1.10 0 34.21 0 0.59 36.94 -0.22 0 6.29 0 -0.20 -29.30 1.24 4.06 26.61 -1.12 -8.88 -1.56 -11.84 14.17 0 0 -79.83 26.14 7.05 26.12 0 0 -0.02 0 -1.46 27.71 0 0 -14.05 -36.07 -7.47 2.29 -0.46 1.83 58.00 65.70 -81.61 5.29 0 0 -27.47 8.12 22.87 3.01 0 0 17.15 -5.11 15.45 9.37 0.29 2.59 -2.63 -0.91 -1.90 4.34 0 0 -17.10 -0.25 3.50 2.16 0 0 -10.08 -0.17 1.59 9.47 0.83 0.29 -10.05 -4.65 2.28 4.77 0 0 -16.92 -0.55 4.33 2.87 0 0 -13.95 -0.33 4.98 8.65 1.01 -1.70 -15.82 1.67 3.54 4.54 0 0 -20.74 -0.51 2.79 2.50 0 0 -10.95 -0.08 2.42 7.69 0.66 -3.90 -20.72 -10.15 6.16 3.21 0 0 -16.43 -0.81 5.64 1.92 0 0 -11.18 -0.31 5.39 -4.06 26.61 -1.12 10.90 -1.15 9.39 -14.17 0 0 72.72 37.92 -7.51 -26.12 0 0 0.10 0 6.75 -27.71 0 0 12.89 -23.33 2.31 -2.29 -0.46 1.83 -57.27 63.08 81.18 -5.29 0 0 31.56 5.74 -23.16 -3.01 0 0 -17.82 -3.82 -19.31 -9.37 0.29 2.59 2.05 -1.02 2.39 -4.34 0 0 17.08 -0.19 -3.13 -2.16 0 0 10.02 -0.15 -1.41 -9.47 0.83 0.29 9.93 -4.60 -1.68 -4.77 0 0 17.04 -0.50 -3.99 -2.87 0 0 14.08 -0.30 -4.62 -8.65 1.01 -1.70 15.77 1.76 -2.94 -4.54 0 0 20.91 -0.44 -2.38 -2.50 0 0 11.12 -0.07 -2.07 -7.69 0.66 -3.90 20.73 -10 -5.32 -3.21 0 0 16.52 -0.76 -5.29 -1.92 0 0 11.27 -0.30 -5.06 8.73 -0 0 11.00 -8.27 24.52 0 -46.66 0 5.89 18.18 0.91 0 -40.14 0 -6.85 -3.44 7.97 0 -8.88 14.22 0 0 0 -8.73 0 -0 2.71 0.18 -18.39 0 -46.66 0 -3.12 12.77 -9.45 0 -40.14 0 3.35 -8.29 -9.16 0 -8.88 14.22 0 0 0 
-0.18 96.21 0.35 -3.77 -3.77 -5.55 0 7.23 0 2.24 -0.62 0.65 0 16.54 0 3.81 0.62 1.10 0 34.21 0 0.61 37.15 -0.24 0 6.29 0 -0.24 -29.19 1.17 4.06 26.61 -1.12 -8.90 -1.54 -11.96 14.17 0 0 -79.95 26.38 7.14 26.12 0 0 -0.02 0 -1.47 27.71 0 0 -14.02 -35.99 -7.23 2.29 -0.46 1.83 59.75 66.66 -84.89 5.29 0 0 -27.23 8.46 23.59 3.01 0 0 17.01 -5.32 15.66 9.37 0.29 2.59 -2.94 -0.72 -1.51 4.34 0 0 -17.09 -0.25 3.50 2.16 0 0 -10.07 -0.17 1.59 9.47 0.83 0.29 -10.07 -4.66 2.64 4.77 0 0 -16.92 -0.55 4.33 2.87 0 0 -13.95 -0.33 4.98 8.65 1.01 -1.70 -15.97 1.65 3.80 4.54 0 0 -20.65 -0.50 2.78 2.50 0 0 -10.85 -0.08 2.41 7.69 0.66 -3.90 -21.03 -10.19 6.47 3.21 0 0 -16.35 -0.80 5.61 1.92 0 0 -11.08 -0.31 5.36 -4.06 26.61 -1.12 10.94 -1.13 9.46 -14.17 0 0 72.14 38.60 -7.35 -26.12 0 0 0.10 0 6.85 -27.71 0 0 12.82 -22.97 2.40 -2.29 -0.46 1.83 -58.09 63.35 82.68 -5.29 0 0 31.52 5.80 -23.39 -3.01 0 0 -17.79 -3.83 -19.52 -9.37 0.29 2.59 1.14 -1.00 2.57 -4.34 0 0 16.95 -0.18 -3.11 -2.16 0 0 9.89 -0.14 -1.39 -9.47 0.83 0.29 9.40 -4.57 -1.70 -4.77 0 0 17.10 -0.51 -4.00 -2.87 0 0 14.14 -0.30 -4.63 -8.65 1.01 -1.70 15.92 1.75 -3.06 -4.54 0 0 20.91 -0.44 -2.38 -2.50 0 0 11.12 -0.07 -2.07 -7.69 0.66 -3.90 20.99 -10.03 -5.42 -3.21 0 0 16.57 -0.77 -5.31 -1.92 0 0 11.32 -0.30 -5.08 8.73 -0 0 11.05 -8.21 24.58 0 -46.66 0 5.96 18.54 0.87 0 -40.14 0 -6.91 -3.67 7.94 0 -8.88 14.22 0 0 0 -8.73 0 -0 2.66 0.08 -18.36 0 -46.66 0 -3.22 13.40 -9.42 0 -40.14 0 3.43 -8.64 -9.13 0 -8.88 14.22 0 0 0 
-0.17 96.17 0.46 -3.78 -3.97 -5.63 0 7.23 0 2.26 -0.65 0.65 0 16.54 0 3.87 0.56 1.12 0 34.21 0 0.61 37.49 -0.27 0 6.29 0 -0.36 -29.10 1.04 4.06 26.61 -1.12 -8.92 -1.50 -12.17 14.17 0 0 -79.86 26.67 7.34 26.12 0 0 -0.02 0 -1.71 27.71 0 0 -13.88 -35.68 -6.69 2.29 -0.46 1.83 61.54 67.33 -88.19 5.29 0 0 -27.13 8.62 23.91 3.01 0 0 16.94 -5.40 15.90 9.37 0.29 2.59 -3.46 -0.55 -1.10 4.34 0 0 -17.06 -0.24 3.49 2.16 0 0 -10.05 -0.17 1.59 9.47 0.83 0.29 -10.24 -4.67 3.04 4.77 0 0 -16.92 -0.55 4.33 2.87 0 0 -13.95 -0.33 4.98 8.65 1.01 -1.70 -16.21 1.64 4.08 4.54 0 0 -20.55 -0.50 2.77 2.50 0 0 -10.74 -0.08 2.40 7.69 0.66 -3.90 -21.38 -10.23 6.75 3.21 0 0 -16.25 -0.79 5.58 1.92 0 0 -10.98 -0.30 5.32 -4.06 26.61 -1.12 10.92 -1.13 9.47 -14.17 0 0 71.21 39.46 -7.07 -26.12 0 0 0.10 0 6.92 -27.71 0 0 12.66 -22.53 2.61 -2.29 -0.46 1.83 -59.93 63.66 85.99 -5.29 0 0 31.46 5.88 -23.67 -3.01 0 0 -17.75 -3.75 -19.65 -9.37 0.29 2.59 -0.73 -0.95 2.88 -4.34 0 0 16.52 -0.16 -3.03 -2.16 0 0 9.47 -0.13 -1.31 -9.47 0.83 0.29 8.05 -4.50 -1.67 -4.77 0 0 17.07 -0.50 -3.99 -2.87 0 0 14.12 -0.30 -4.62 -8.65 1.01 -1.70 16.12 1.74 -3.24 -4.54 0 0 20.85 -0.43 -2.38 -2.50 0 0 11.06 -0.07 -2.06 -7.69 0.66 -3.90 21.77 -10.09 -5.54 -3.21 0 0 16.90 -0.80 -5.41 -1.92 0 0 11.65 -0.32 -5.18 8.73 -0 0 11.07 -8.09 24.62 0 -46.66 0 6.04 18.88 0.85 0 -40.14 0 -6.96 -3.91 7.91 0 -8.88 14.22 0 0 -0 -8.73 0 -0 2.57 0.07 -18.36 0 -46.66 0 -3.29 14.00 -9.34 0 -40.14 0 3.50 -8.98 -9.10 0 -8.88 14.22 -0 0 0 
-0.15 96.14 0.59 -3.77 -4.19 -5.73 0 7.23 0 2.29 -0.72 0.65 0 16.54 0 3.94 0.42 1.12 0 34.21 0 0.58 37.93 -0.31 0 6.29 0 -0.66 -28.90 0.83 4.06 26.61 -1.12 -8.93 -1.46 -12.47 14.17 0 0 -79.61 26.72 7.70 26.12 0 0 -0.03 0 -2.45 27.71 0 0 -13.58 -35.16 -6.03 2.29 -0.46 1.83 62.70 67.41 -90.48 5.29 0 0 -27.23 8.47 23.59 3.01 0 0 16.99 -5.28 16.03 9.37 0.29 2.59 -4.11 -0.44 -0.76 4.34 0 0 -17.01 -0.24 3.48 2.16 0 0 -10 -0.16 1.58 9.47 0.83 0.29 -10.44 -4.68 3.42 4.77 0 0 -16.90 -0.55 4.32 2.87 0 0 -13.94 -0.32 4.98 8.65 1.01 -1.70 -16.51 1.61 4.31 4.54 0 0 -20.45 -0.49 2.76 2.50 0 0 -10.63 -0.08 2.38 7.69 0.66 -3.90 -21.77 -10.27 6.98 3.21 0 0 -16.15 -0.78 5.55 1.92 0 0 -10.88 -0.29 5.29 -4.06 26.61 -1.12 10.88 -1.15 9.37 -14.17 0 0 70.07 40.65 -6.58 -26.12 0 0 0.10 0 7.04 -27.71 0 0 12.53 -21.83 2.79 -2.29 -0.46 1.83 -63.00 63.96 91.95 -5.29 0 0 31.32 6.04 -24.29 -3.01 0 0 -17.64 -3.78 -19.70 -9.37 0.29 2.59 -2.65 -0.89 3.04 -4.34 0 0 15.73 -0.12 -2.89 -2.16 0 0 8.67 -0.11 -1.17 -9.47 0.83 0.29 6.73 -4.45 -1.72 -4.77 0 0 17.00 -0.50 -3.98 -2.87 0 0 14.06 -0.30 -4.61 -8.65 1.01 -1.70 17.45 1.65 -3.63 -4.54 0 0 20.98 -0.44 -2.39 -2.50 0 0 11.19 -0.08 -2.08 -7.69 0.66 -3.90 24.62 -10.34 -5.85 -3.21 0 0 17.71 -0.88 -5.66 -1.92 0 0 12.45 -0.38 -5.44 8.73 -0 0 11.06 -7.88 24.63 0 -46.66 0 6.10 19.16 0.86 0 -40.14 0 -7.03 -4.14 7.87 0 -8.88 14.22 0 0 0 -8.73 0 -0 2.46 0.15 -18.37 0 -46.66 0 -3.34 14.50 -9.21 0 -40.14 0 3.58 -9.26 -9.07 0 -8.88 14.22 -0 0 0 
